<svg width="38" height="33" viewBox="0 0 38 33" fill="none" xmlns="http://www.w3.org/2000/svg">
<path d="M9.00723 27.8024L9.00428 27.801C8.9114 27.7547 8.84966 27.6952 8.81364 27.6409C8.7787 27.5881 8.7668 27.5394 8.76662 27.4986V7.32875V7.31602L8.76629 7.30329C8.75306 6.78361 8.96978 6.25384 9.41616 5.83535C9.86347 5.416 10.5016 5.14988 11.2004 5.125H26.0793C26.7781 5.14988 27.4162 5.416 27.8636 5.83535C28.3099 6.25384 28.5266 6.78361 28.5134 7.30329L28.5131 7.31602V7.32875V27.4952C28.5124 27.5351 28.5005 27.5825 28.4668 27.6338C28.4317 27.6873 28.3717 27.7459 28.2814 27.792L28.2813 27.7921C28.1902 27.8387 28.0788 27.8667 27.9598 27.8667C27.8407 27.8667 27.7294 27.8387 27.6382 27.7921L27.6382 27.792L27.6311 27.7885L18.8238 23.3747L18.3623 23.1435L17.9065 23.3857L9.6273 27.7857L9.62726 27.7856L9.61503 27.7923C9.52954 27.8393 9.424 27.87 9.30916 27.8748C9.19779 27.8726 9.09368 27.8458 9.00723 27.8024Z" fill="#F24062" stroke="white" stroke-width="2"/>
</svg>
